<?xml version="1.0" encoding="UTF-8"?>
<svg xmlns="http://www.w3.org/2000/svg" xmlns:xlink="http://www.w3.org/1999/xlink" width="1419pt" height="1404pt" viewBox="0 0 1419 1404" version="1.1">
<g id="surface1">
<path style=" stroke:none;fill-rule:evenodd;fill:rgb(100%,0%,19.993591%);fill-opacity:1;" d="M 0.707031 40.378906 C 0.707031 35.230469 1.738281 30.070313 3.710938 25.300781 C 5.679688 20.53125 8.605469 16.160156 12.253906 12.511719 C 15.902344 8.859375 20.277344 5.941406 25.042969 3.960938 C 29.8125 1.988281 34.972656 0.960938 40.128906 0.960938 L 655.046875 0.960938 C 660.203125 0.960938 665.363281 1.988281 670.128906 3.960938 C 674.898438 5.941406 679.269531 8.859375 682.921875 12.511719 C 686.566406 16.160156 689.492188 20.53125 691.464844 25.300781 C 693.433594 30.070313 694.46875 35.230469 694.46875 40.378906 L 694.46875 655.300781 C 694.46875 660.457031 693.4375 665.617188 691.464844 670.386719 C 689.492188 675.152344 686.570313 679.523438 682.921875 683.175781 C 679.269531 686.824219 674.898438 689.746094 670.128906 691.71875 C 665.363281 693.691406 660.203125 694.722656 655.046875 694.722656 L 40.128906 694.722656 C 34.972656 694.722656 29.808594 693.691406 25.042969 691.71875 C 20.277344 689.746094 15.902344 686.824219 12.253906 683.175781 C 8.605469 679.523438 5.679688 675.152344 3.710938 670.386719 C 1.738281 665.617188 0.707031 660.457031 0.707031 655.300781 L 0.707031 40.378906 "/>
<path style=" stroke:none;fill-rule:evenodd;fill:rgb(100%,0%,19.993591%);fill-opacity:1;" d="M 724.269531 42.550781 C 724.269531 37.398438 725.300781 32.238281 727.273438 27.46875 C 729.242188 22.699219 732.167969 18.328125 735.816406 14.679688 C 739.46875 11.03125 743.839844 8.109375 748.605469 6.140625 C 753.375 4.160156 758.535156 3.128906 763.691406 3.128906 L 1378.609375 3.128906 C 1383.769531 3.128906 1388.929688 4.160156 1393.691406 6.128906 C 1398.460938 8.109375 1402.828125 11.03125 1406.480469 14.679688 C 1410.128906 18.328125 1413.058594 22.699219 1415.03125 27.46875 C 1417 32.238281 1418.03125 37.398438 1418.03125 42.550781 L 1418.03125 657.46875 C 1418.03125 662.628906 1417 667.789063 1415.03125 672.554688 C 1413.058594 677.320313 1410.128906 681.695313 1406.480469 685.34375 C 1402.828125 688.992188 1398.460938 691.917969 1393.691406 693.890625 C 1388.929688 695.859375 1383.769531 696.890625 1378.609375 696.890625 L 763.691406 696.890625 C 758.535156 696.890625 753.375 695.859375 748.605469 693.890625 C 743.839844 691.917969 739.46875 688.992188 735.816406 685.34375 C 732.171875 681.695313 729.246094 677.320313 727.273438 672.554688 C 725.300781 667.789063 724.269531 662.628906 724.269531 657.46875 L 724.269531 42.550781 "/>
<path style=" stroke:none;fill-rule:evenodd;fill:rgb(0%,39.988708%,100%);fill-opacity:1;" d="M 5.011719 770.570313 C 5.011719 764.949219 6.132813 759.328125 8.28125 754.136719 C 10.429688 748.941406 13.617188 744.179688 17.589844 740.203125 C 21.566406 736.226563 26.332031 733.042969 31.523438 730.894531 C 36.71875 728.746094 42.339844 727.621094 47.957031 727.621094 L 1370.121094 727.621094 C 1375.738281 727.621094 1381.359375 728.746094 1386.558594 730.894531 C 1391.75 733.039063 1396.511719 736.226563 1400.488281 740.203125 C 1404.460938 744.179688 1407.648438 748.941406 1409.800781 754.136719 C 1411.941406 759.328125 1413.070313 764.949219 1413.070313 770.570313 L 1413.070313 1360.34375 C 1413.070313 1365.964844 1411.941406 1371.585938 1409.800781 1376.777344 C 1407.648438 1381.972656 1404.460938 1386.734375 1400.488281 1390.710938 C 1396.511719 1394.6875 1391.75 1397.871094 1386.550781 1400.019531 C 1381.359375 1402.167969 1375.738281 1403.289063 1370.121094 1403.289063 L 47.957031 1403.289063 C 42.339844 1403.289063 36.71875 1402.167969 31.523438 1400.019531 C 26.332031 1397.871094 21.566406 1394.6875 17.589844 1390.710938 C 13.617188 1386.734375 10.429688 1381.972656 8.28125 1376.777344 C 6.136719 1371.585938 5.011719 1365.960938 5.011719 1360.34375 L 5.011719 770.570313 "/>
<path style=" stroke:none;fill-rule:evenodd;fill:rgb(100%,100%,100%);fill-opacity:1;" d="M 235.085938 321.050781 C 219.964844 321.050781 204.84375 318.039063 190.875 312.25 C 176.90625 306.46875 164.085938 297.898438 153.394531 287.210938 C 142.703125 276.519531 134.136719 263.699219 128.351563 249.730469 C 122.5625 235.761719 119.554688 220.640625 119.554688 205.519531 C 119.554688 190.398438 122.5625 175.269531 128.351563 161.308594 C 134.136719 147.339844 142.703125 134.519531 153.394531 123.820313 C 164.085938 113.128906 176.902344 104.570313 190.875 98.78125 C 204.84375 92.988281 219.964844 89.988281 235.085938 89.988281 C 250.207031 89.988281 265.328125 92.988281 279.296875 98.78125 C 293.265625 104.570313 306.085938 113.128906 316.777344 123.820313 C 327.46875 134.519531 336.035156 147.339844 341.820313 161.308594 C 347.609375 175.269531 350.617188 190.398438 350.617188 205.519531 C 350.617188 220.640625 347.609375 235.761719 341.820313 249.730469 C 336.035156 263.699219 327.472656 276.519531 316.777344 287.210938 C 306.085938 297.898438 293.265625 306.46875 279.296875 312.25 C 265.328125 318.039063 250.207031 321.050781 235.085938 321.050781 "/>
<path style=" stroke:none;fill-rule:evenodd;fill:rgb(100%,100%,100%);fill-opacity:1;" d="M 477.242188 566.921875 C 462.121094 566.921875 447 563.910156 433.03125 558.121094 C 419.058594 552.335938 406.242188 543.773438 395.550781 533.078125 C 384.855469 522.386719 376.289063 509.570313 370.503906 495.597656 C 364.71875 481.628906 361.710938 466.507813 361.710938 451.386719 C 361.710938 436.265625 364.71875 421.144531 370.503906 407.175781 C 376.289063 393.210938 384.855469 380.390625 395.550781 369.699219 C 406.242188 359 419.058594 350.441406 433.03125 344.648438 C 447 338.859375 462.121094 335.859375 477.242188 335.859375 C 492.363281 335.859375 507.484375 338.859375 521.453125 344.648438 C 535.421875 350.441406 548.242188 359 558.933594 369.699219 C 569.625 380.390625 578.191406 393.210938 583.976563 407.175781 C 589.765625 421.144531 592.769531 436.265625 592.769531 451.386719 C 592.769531 466.507813 589.765625 481.628906 583.976563 495.597656 C 578.191406 509.570313 569.625 522.390625 558.933594 533.078125 C 548.242188 543.773438 535.421875 552.335938 521.453125 558.121094 C 507.480469 563.910156 492.363281 566.921875 477.242188 566.921875 "/>
<path style=" stroke:none;fill-rule:evenodd;fill:rgb(100%,100%,100%);fill-opacity:1;" d="M 1072.441406 450.96875 C 1057.320313 450.96875 1042.199219 447.957031 1028.230469 442.171875 C 1014.261719 436.382813 1001.441406 427.820313 990.746094 417.128906 C 980.054688 406.433594 971.488281 393.621094 965.703125 379.648438 C 959.917969 365.679688 956.910156 350.558594 956.910156 335.429688 C 956.910156 320.308594 959.917969 305.191406 965.703125 291.21875 C 971.488281 277.25 980.054688 264.429688 990.746094 253.738281 C 1001.441406 243.050781 1014.261719 234.488281 1028.230469 228.699219 C 1042.199219 222.910156 1057.320313 219.898438 1072.441406 219.898438 C 1087.558594 219.898438 1102.679688 222.910156 1116.648438 228.699219 C 1130.621094 234.488281 1143.441406 243.050781 1154.128906 253.738281 C 1164.820313 264.429688 1173.390625 277.25 1179.179688 291.21875 C 1184.960938 305.191406 1187.96875 320.308594 1187.96875 335.429688 C 1187.96875 350.558594 1184.960938 365.679688 1179.179688 379.648438 C 1173.390625 393.621094 1164.828125 406.4375 1154.128906 417.128906 C 1143.441406 427.820313 1130.621094 436.382813 1116.648438 442.171875 C 1102.679688 447.957031 1087.558594 450.96875 1072.441406 450.96875 "/>
<path style=" stroke:none;fill-rule:evenodd;fill:rgb(100%,100%,100%);fill-opacity:1;" d="M 79.746094 774.039063 L 164.277344 774.039063 C 180.941406 774.039063 194.402344 777.003906 204.660156 782.933594 C 214.917969 788.863281 223.394531 797.375 230.09375 808.464844 C 236.792969 819.554688 241.648438 832.460938 244.664063 847.175781 C 246.171875 854.53125 247.300781 862.109375 248.054688 869.90625 C 248.808594 877.703125 249.1875 885.71875 249.1875 893.953125 C 249.1875 919.761719 246.945313 939.773438 242.464844 953.992188 C 237.984375 968.214844 231.769531 980.128906 223.8125 989.738281 C 219.835938 994.542969 215.714844 998.542969 211.441406 1001.742188 C 207.171875 1004.9375 202.753906 1007.335938 198.191406 1008.925781 C 191.953125 1011.121094 186.007813 1012.769531 180.355469 1013.867188 C 174.703125 1014.96875 169.34375 1015.515625 164.277344 1015.515625 L 79.746094 1015.515625 L 79.746094 774.039063 M 136.644531 828.726563 L 136.644531 960.664063 L 150.589844 960.664063 C 162.480469 960.664063 170.9375 958.933594 175.960938 955.476563 C 180.984375 952.015625 184.921875 945.976563 187.765625 937.355469 C 189.191406 933.046875 190.257813 927.398438 190.96875 920.410156 C 191.679688 913.425781 192.035156 905.101563 192.035156 895.4375 C 192.035156 869.851563 188.855469 852.335938 182.492188 842.890625 C 179.308594 838.171875 175.078125 834.628906 169.804688 832.265625 C 164.53125 829.90625 158.207031 828.726563 150.839844 828.726563 L 136.644531 828.726563 "/>
<path style=" stroke:none;fill-rule:evenodd;fill:rgb(100%,100%,100%);fill-opacity:1;" d="M 288.164063 862.574219 C 295.03125 853.925781 303.101563 847.441406 312.375 843.117188 C 321.648438 838.792969 332.125 836.632813 343.808594 836.632813 C 357.164063 836.632813 368.886719 839.171875 378.976563 844.25 C 389.066406 849.328125 397.523438 856.945313 404.347656 867.105469 C 409.832031 875.285156 413.945313 884.414063 416.6875 894.488281 C 419.429688 904.5625 420.800781 915.585938 420.800781 927.554688 C 420.800781 954.460938 413.996094 976.503906 400.390625 993.691406 C 393.589844 1002.285156 385.480469 1008.726563 376.070313 1013.023438 C 366.660156 1017.320313 355.949219 1019.46875 343.933594 1019.46875 C 333.214844 1019.46875 323.523438 1017.683594 314.855469 1014.117188 C 306.1875 1010.546875 298.546875 1005.191406 291.933594 998.054688 C 283.8125 989.214844 277.71875 979.003906 273.65625 967.417969 C 269.597656 955.832031 267.566406 942.875 267.566406 928.546875 C 267.566406 901.859375 274.433594 879.871094 288.164063 862.574219 M 326.035156 962.972656 C 328.441406 966.703125 331.15625 969.503906 334.183594 971.371094 C 337.207031 973.238281 340.542969 974.171875 344.183594 974.171875 C 351.554688 974.171875 357.601563 970.492188 362.335938 963.136719 C 364.699219 959.457031 366.472656 954.664063 367.65625 948.765625 C 368.839844 942.859375 369.429688 935.847656 369.429688 927.722656 C 369.429688 912.566406 367.042969 901.285156 362.269531 893.871094 C 359.882813 890.164063 357.214844 887.386719 354.265625 885.53125 C 351.3125 883.679688 348.078125 882.753906 344.5625 882.753906 C 337.109375 882.753906 330.953125 886.515625 326.097656 894.035156 C 323.667969 897.796875 321.847656 902.539063 320.632813 908.265625 C 319.421875 913.988281 318.8125 920.691406 318.8125 928.378906 C 318.8125 943.972656 321.21875 955.503906 326.035156 962.972656 "/>
<path style=" stroke:none;fill-rule:evenodd;fill:rgb(100%,100%,100%);fill-opacity:1;" d="M 443.953125 840.585938 L 491.683594 840.585938 L 491.683594 866.117188 C 498.5625 855.464844 505.5 847.886719 512.503906 843.386719 C 516.003906 841.132813 519.863281 839.445313 524.089844 838.320313 C 528.3125 837.195313 532.898438 836.632813 537.847656 836.632813 C 548.496094 836.632813 556.925781 839.101563 563.128906 844.046875 C 566.234375 846.515625 569.054688 849.589844 571.589844 853.269531 C 574.125 856.945313 576.378906 861.230469 578.351563 866.117188 C 586.378906 854.695313 593.695313 846.925781 600.300781 842.808594 C 603.605469 840.75 607.292969 839.207031 611.371094 838.175781 C 615.445313 837.148438 619.910156 836.632813 624.761719 836.632813 C 639.058594 836.632813 650.222656 842.203125 658.25 853.351563 C 662.265625 858.925781 665.273438 866.066406 667.28125 874.785156 C 669.289063 883.5 670.289063 893.789063 670.289063 905.648438 L 670.289063 1015.515625 L 619.046875 1015.515625 L 619.046875 915.859375 C 619.046875 911.90625 618.753906 908.464844 618.167969 905.523438 C 617.585938 902.589844 616.710938 900.15625 615.539063 898.238281 C 613.828125 895.21875 611.910156 892.953125 609.78125 891.441406 C 607.65625 889.933594 605.320313 889.175781 602.773438 889.175781 C 596.765625 889.175781 591.925781 892.03125 588.253906 897.742188 C 586.417969 900.597656 585.039063 904.316406 584.121094 908.902344 C 583.203125 913.488281 582.746094 918.9375 582.746094 925.25 L 582.746094 1015.515625 L 531.5 1015.515625 L 531.5 919.15625 C 531.5 915.3125 531.414063 912.085938 531.246094 909.480469 C 531.078125 906.871094 530.828125 904.878906 530.492188 903.507813 C 529.398438 899.113281 527.507813 895.574219 524.820313 892.882813 C 523.476563 891.539063 522.015625 890.527344 520.441406 889.855469 C 518.863281 889.183594 517.175781 888.847656 515.367188 888.847656 C 509.484375 888.847656 504.652344 891.757813 500.871094 897.578125 C 498.980469 900.488281 497.5625 904.332031 496.617188 909.109375 C 495.675781 913.886719 495.199219 919.59375 495.199219 926.238281 L 495.199219 1015.515625 L 443.953125 1015.515625 L 443.953125 840.585938 "/>
<path style=" stroke:none;fill-rule:evenodd;fill:rgb(100%,100%,100%);fill-opacity:1;" d="M 700.855469 774.039063 L 751.976563 774.039063 L 751.976563 819.664063 L 700.855469 819.664063 L 700.855469 774.039063 M 700.855469 840.585938 L 751.976563 840.585938 L 751.976563 1015.515625 L 700.855469 1015.515625 L 700.855469 840.585938 "/>
<path style=" stroke:none;fill-rule:evenodd;fill:rgb(100%,100%,100%);fill-opacity:1;" d="M 782.789063 840.585938 L 830.394531 840.585938 L 830.394531 869.082031 C 837.511719 857.441406 844.714844 849.121094 851.996094 844.128906 C 855.640625 841.628906 859.679688 839.753906 864.117188 838.507813 C 868.554688 837.257813 873.390625 836.632813 878.625 836.632813 C 892.777344 836.632813 903.851563 842.148438 911.847656 853.1875 C 915.847656 858.703125 918.84375 865.726563 920.84375 874.25 C 922.84375 882.773438 923.84375 892.800781 923.84375 904.332031 L 923.84375 1015.515625 L 872.472656 1015.515625 L 872.472656 919.320313 C 872.472656 908.339844 870.921875 900.570313 867.824219 896.011719 C 866.273438 893.734375 864.410156 892.023438 862.234375 890.886719 C 860.058594 889.746094 857.566406 889.175781 854.761719 889.175781 C 848.566406 889.175781 843.539063 892.253906 839.6875 898.402344 C 837.761719 901.476563 836.316406 905.773438 835.355469 911.289063 C 834.394531 916.808594 833.910156 923.546875 833.910156 931.511719 L 833.910156 1015.515625 L 782.789063 1015.515625 L 782.789063 840.585938 "/>
<path style=" stroke:none;fill-rule:evenodd;fill:rgb(100%,100%,100%);fill-opacity:1;" d="M 966.839844 862.574219 C 973.707031 853.925781 981.777344 847.441406 991.050781 843.117188 C 1000.320313 838.792969 1010.800781 836.632813 1022.480469 836.632813 C 1035.839844 836.632813 1047.558594 839.171875 1057.648438 844.25 C 1067.738281 849.328125 1076.199219 856.945313 1083.019531 867.105469 C 1088.511719 875.285156 1092.621094 884.414063 1095.359375 894.488281 C 1098.109375 904.5625 1099.480469 915.585938 1099.480469 927.554688 C 1099.480469 954.460938 1092.671875 976.503906 1079.070313 993.691406 C 1072.261719 1002.285156 1064.160156 1008.726563 1054.75 1013.023438 C 1045.339844 1017.320313 1034.621094 1019.46875 1022.609375 1019.46875 C 1011.890625 1019.46875 1002.199219 1017.683594 993.53125 1014.117188 C 984.863281 1010.546875 977.222656 1005.191406 970.609375 998.054688 C 962.488281 989.214844 956.394531 979.003906 952.335938 967.417969 C 948.273438 955.832031 946.242188 942.875 946.242188 928.546875 C 946.242188 901.859375 953.109375 879.871094 966.839844 862.574219 M 1004.710938 962.972656 C 1007.121094 966.703125 1009.828125 969.503906 1012.859375 971.371094 C 1015.878906 973.238281 1019.21875 974.171875 1022.859375 974.171875 C 1030.230469 974.171875 1036.28125 970.492188 1041.011719 963.136719 C 1043.378906 959.457031 1045.148438 954.664063 1046.328125 948.765625 C 1047.511719 942.859375 1048.109375 935.847656 1048.109375 927.722656 C 1048.109375 912.566406 1045.71875 901.285156 1040.949219 893.871094 C 1038.558594 890.164063 1035.890625 887.386719 1032.941406 885.53125 C 1029.988281 883.679688 1026.75 882.753906 1023.238281 882.753906 C 1015.78125 882.753906 1009.628906 886.515625 1004.769531 894.035156 C 1002.339844 897.796875 1000.519531 902.539063 999.308594 908.265625 C 998.09375 913.988281 997.488281 920.691406 997.488281 928.378906 C 997.488281 943.972656 999.894531 955.503906 1004.710938 962.972656 "/>
<path style=" stroke:none;fill-rule:evenodd;fill:rgb(100%,100%,100%);fill-opacity:1;" d="M 1117.480469 774.039063 L 1168.480469 774.039063 L 1168.480469 813.902344 L 1160.441406 862.820313 L 1125.769531 862.820313 L 1117.480469 813.902344 L 1117.480469 774.039063 "/>
<path style=" stroke:none;fill-rule:evenodd;fill:rgb(100%,100%,100%);fill-opacity:1;" d="M 1233.578125 960.664063 C 1235.671875 968.570313 1238.609375 974.226563 1242.371094 977.632813 C 1244.261719 979.332031 1246.460938 980.609375 1248.96875 981.460938 C 1251.480469 982.3125 1254.308594 982.738281 1257.449219 982.738281 C 1260.878906 982.738281 1263.921875 982.257813 1266.578125 981.296875 C 1269.238281 980.339844 1271.511719 978.898438 1273.398438 976.980469 C 1274.859375 975.554688 1275.960938 973.949219 1276.691406 972.171875 C 1277.429688 970.386719 1277.789063 968.429688 1277.789063 966.289063 C 1277.789063 963.878906 1277.308594 961.738281 1276.351563 959.875 C 1275.390625 958.011719 1273.941406 956.421875 1272.019531 955.105469 C 1270.628906 954.175781 1268.109375 953.132813 1264.449219 951.980469 C 1260.78125 950.828125 1255.980469 949.566406 1250.03125 948.199219 C 1232.28125 944.140625 1219.949219 940.382813 1213.039063 936.925781 C 1206.140625 933.472656 1200.320313 927.628906 1195.589844 919.402344 C 1193.21875 915.289063 1191.449219 910.886719 1190.261719 906.199219 C 1189.078125 901.507813 1188.488281 896.53125 1188.488281 891.265625 C 1188.488281 879.746094 1191.039063 869.816406 1196.148438 861.480469 C 1201.261719 853.140625 1208.289063 846.914063 1217.25 842.800781 C 1221.730469 840.746094 1226.980469 839.203125 1232.980469 838.175781 C 1238.988281 837.144531 1245.761719 836.632813 1253.300781 836.632813 C 1269.210938 836.632813 1280.949219 838.222656 1288.53125 841.410156 C 1296.109375 844.59375 1302.429688 849.535156 1307.5 856.234375 C 1310.03125 859.582031 1312.351563 863.523438 1314.449219 868.050781 C 1316.558594 872.582031 1318.449219 877.703125 1320.121094 883.410156 L 1271.640625 889.671875 C 1271.011719 886.871094 1270.171875 884.441406 1269.128906 882.382813 C 1268.078125 880.324219 1266.820313 878.636719 1265.359375 877.316406 C 1263.351563 875.5625 1261.128906 874.242188 1258.699219 873.363281 C 1256.269531 872.484375 1253.640625 872.046875 1250.789063 872.046875 C 1245.011719 872.046875 1240.800781 873.390625 1238.171875 876.074219 C 1236.851563 877.417969 1235.859375 878.90625 1235.199219 880.535156 C 1234.539063 882.167969 1234.210938 883.941406 1234.210938 885.863281 C 1234.210938 888 1234.628906 889.878906 1235.460938 891.496094 C 1236.300781 893.113281 1237.558594 894.46875 1239.230469 895.566406 C 1240.910156 896.660156 1243.570313 897.703125 1247.210938 898.691406 C 1250.851563 899.675781 1255.480469 900.609375 1261.089844 901.488281 C 1278.089844 904.007813 1290.730469 907.519531 1299.019531 912.019531 C 1307.308594 916.515625 1313.648438 922.933594 1318.050781 931.269531 C 1320.25 935.4375 1321.890625 939.8125 1322.988281 944.394531 C 1324.089844 948.972656 1324.640625 953.757813 1324.640625 958.75 C 1324.640625 968.84375 1322.320313 978.660156 1317.671875 988.203125 C 1313.019531 997.75 1305.699219 1005.347656 1295.691406 1010.996094 C 1290.691406 1013.820313 1284.78125 1015.9375 1277.96875 1017.351563 C 1271.148438 1018.761719 1263.429688 1019.46875 1254.808594 1019.46875 C 1230.441406 1019.46875 1213.089844 1014.910156 1202.75 1005.796875 C 1197.570313 1001.238281 1193.328125 995.722656 1190.011719 989.242188 C 1186.691406 982.765625 1184.300781 975.324219 1182.839844 966.925781 L 1233.578125 960.664063 "/>
<path style=" stroke:none;fill-rule:evenodd;fill:rgb(100%,100%,100%);fill-opacity:1;" d="M 89.835938 1066.441406 L 187.261719 1066.441406 C 208.480469 1066.441406 224.371094 1073.003906 234.9375 1086.128906 C 240.222656 1092.691406 244.183594 1100.644531 246.824219 1109.980469 C 249.464844 1119.320313 250.785156 1130.046875 250.785156 1142.164063 C 250.785156 1167.066406 245.03125 1186.53125 233.515625 1200.554688 C 227.757813 1207.566406 220.484375 1212.824219 211.699219 1216.328125 C 202.910156 1219.835938 192.609375 1221.585938 180.789063 1221.585938 L 148.703125 1221.585938 L 148.703125 1313.128906 L 89.835938 1313.128906 L 89.835938 1066.441406 M 148.703125 1171.609375 L 163.066406 1171.609375 C 174.367188 1171.609375 182.300781 1169.058594 186.871094 1163.953125 C 189.15625 1161.402344 190.871094 1158.492188 192.015625 1155.226563 C 193.15625 1151.960938 193.730469 1148.335938 193.730469 1144.351563 C 193.730469 1136.609375 191.746094 1130.046875 187.777344 1124.664063 C 185.796875 1121.972656 182.9375 1119.953125 179.207031 1118.605469 C 175.476563 1117.261719 170.871094 1116.585938 165.394531 1116.585938 L 148.703125 1116.585938 L 148.703125 1171.609375 "/>
<path style=" stroke:none;fill-rule:evenodd;fill:rgb(100%,100%,100%);fill-opacity:1;" d="M 278 1066.441406 L 330.660156 1066.441406 L 330.660156 1113.054688 L 278 1113.054688 L 278 1066.441406 M 278 1134.421875 L 330.660156 1134.421875 L 330.660156 1313.128906 L 278 1313.128906 L 278 1134.421875 "/>
<path style=" stroke:none;fill-rule:evenodd;fill:rgb(100%,100%,100%);fill-opacity:1;" d="M 356.449219 1134.421875 L 483.890625 1134.421875 L 483.890625 1174.472656 L 414.539063 1266.347656 L 488.160156 1266.347656 L 488.160156 1313.128906 L 351.273438 1313.128906 L 351.273438 1268.703125 L 417.144531 1181.203125 L 356.449219 1181.203125 L 356.449219 1134.421875 "/>
<path style=" stroke:none;fill-rule:evenodd;fill:rgb(100%,100%,100%);fill-opacity:1;" d="M 501.921875 1134.421875 L 629.359375 1134.421875 L 629.359375 1174.472656 L 560.011719 1266.347656 L 633.628906 1266.347656 L 633.628906 1313.128906 L 496.742188 1313.128906 L 496.742188 1268.703125 L 562.613281 1181.203125 L 501.921875 1181.203125 L 501.921875 1134.421875 "/>
<path style=" stroke:none;fill-rule:evenodd;fill:rgb(100%,100%,100%);fill-opacity:1;" d="M 651.011719 1185.410156 C 652.910156 1173.96875 655.648438 1164.964844 659.226563 1158.402344 C 661.015625 1155.121094 663.199219 1152.058594 665.777344 1149.210938 C 668.355469 1146.363281 671.324219 1143.734375 674.6875 1141.320313 C 679.519531 1137.84375 686.160156 1135.152344 694.613281 1133.246094 C 698.839844 1132.292969 703.238281 1131.578125 707.808594 1131.101563 C 712.382813 1130.621094 717.125 1130.386719 722.042969 1130.386719 C 737.824219 1130.386719 750.507813 1131.535156 760.078125 1133.835938 C 764.867188 1134.984375 769.253906 1136.757813 773.246094 1139.15625 C 777.234375 1141.554688 780.824219 1144.574219 784.015625 1148.222656 C 788.5 1153.269531 792.035156 1160.421875 794.625 1169.675781 C 795.917969 1174.304688 796.890625 1178.824219 797.535156 1183.242188 C 798.183594 1187.660156 798.507813 1191.972656 798.507813 1196.179688 L 798.507813 1275.097656 C 798.507813 1283.511719 798.914063 1290.101563 799.734375 1294.871094 C 800.144531 1297.253906 800.796875 1299.964844 801.691406 1303.007813 C 802.585938 1306.050781 803.726563 1309.425781 805.105469 1313.128906 L 755.679688 1313.128906 C 753.695313 1308.527344 752.402344 1305.023438 751.800781 1302.609375 C 751.496094 1301.402344 751.195313 1299.855469 750.894531 1297.960938 C 750.59375 1296.066406 750.289063 1293.832031 749.988281 1291.253906 C 743.117188 1299.851563 736.257813 1306.042969 729.414063 1309.761719 C 724.757813 1312.230469 719.722656 1314.082031 714.3125 1315.316406 C 708.898438 1316.546875 703.109375 1317.164063 696.941406 1317.164063 C 680.554688 1317.164063 668.109375 1312.230469 659.613281 1302.355469 C 655.367188 1297.421875 652.179688 1291.910156 650.058594 1285.824219 C 647.933594 1279.738281 646.871094 1273.078125 646.871094 1265.84375 C 646.871094 1259.054688 647.636719 1252.871094 649.167969 1247.289063 C 650.699219 1241.710938 652.996094 1236.730469 656.058594 1232.355469 C 659.117188 1227.980469 663.476563 1224.167969 669.125 1220.914063 C 674.773438 1217.660156 681.71875 1214.96875 689.953125 1212.835938 C 709.707031 1207.675781 722.515625 1204.058594 728.382813 1201.984375 C 731.3125 1200.945313 734.332031 1199.746094 737.4375 1198.386719 C 740.542969 1197.027344 743.734375 1195.503906 747.011719 1193.824219 C 747.011719 1185.410156 745.675781 1179.519531 743.003906 1176.152344 C 741.664063 1174.472656 739.820313 1173.210938 737.472656 1172.367188 C 735.121094 1171.527344 732.261719 1171.105469 728.898438 1171.105469 C 724.585938 1171.105469 720.8125 1171.554688 717.578125 1172.453125 C 714.34375 1173.351563 711.648438 1174.695313 709.492188 1176.492188 C 707.808594 1177.894531 706.289063 1179.910156 704.929688 1182.550781 C 703.574219 1185.183594 702.375 1188.4375 701.339844 1192.308594 L 651.011719 1185.410156 M 747.011719 1228.316406 C 743.390625 1230 739.691406 1231.585938 735.917969 1233.070313 C 732.144531 1234.558594 728.296875 1235.945313 724.371094 1237.238281 C 719.023438 1239.085938 714.65625 1240.925781 711.269531 1242.746094 C 707.886719 1244.570313 705.480469 1246.378906 704.058594 1248.175781 C 702.589844 1250.023438 701.492188 1252.003906 700.757813 1254.105469 C 700.023438 1256.210938 699.660156 1258.4375 699.660156 1260.796875 C 699.660156 1266.179688 701.105469 1270.582031 703.992188 1274.003906 C 705.4375 1275.714844 707.222656 1276.996094 709.347656 1277.851563 C 711.46875 1278.707031 713.933594 1279.136719 716.738281 1279.136719 C 722.601563 1279.136719 728.058594 1277.285156 733.105469 1273.582031 C 738.148438 1269.882813 741.730469 1265.367188 743.84375 1260.035156 C 744.898438 1257.371094 745.691406 1254.308594 746.21875 1250.847656 C 746.746094 1247.382813 747.011719 1243.519531 747.011719 1239.257813 L 747.011719 1228.316406 "/>
</g>
</svg>
